<?xml version="1.0" standalone="no"?>
<!DOCTYPE svg PUBLIC "-//W3C//DTD SVG 20010904//EN"
 "http://www.w3.org/TR/2001/REC-SVG-20010904/DTD/svg10.dtd">
<svg version="1.0" xmlns="http://www.w3.org/2000/svg"
 width="300.000000pt" height="300.000000pt" viewBox="0 0 300.000000 300.000000"
 preserveAspectRatio="xMidYMid meet">
<metadata>
Created by potrace 1.11, written by Peter Selinger 2001-2013
</metadata>
<g transform="translate(0.000000,300.000000) scale(0.100000,-0.100000)"
fill="#000000" stroke="none">
<path d="M1447 2934 c-1 -1 -38 -5 -82 -9 -168 -14 -216 -33 -389 -155 -196
-139 -261 -193 -262 -217 -1 -12 -13 -34 -28 -49 -15 -16 -46 -53 -68 -81 -22
-29 -48 -53 -57 -53 -23 -1 -95 -125 -125 -217 -32 -99 -96 -330 -96 -348 0
-7 9 -15 20 -18 21 -5 29 -47 10 -47 -7 0 -9 -16 -6 -40 3 -22 1 -40 -4 -40
-14 0 -40 -44 -46 -76 -2 -16 -7 -42 -11 -59 -10 -49 -4 -236 10 -290 9 -39
17 -50 36 -55 26 -6 32 -15 55 -73 16 -40 9 -38 136 -41 60 -1 72 -10 116 -86
20 -36 49 -83 64 -105 14 -22 59 -112 99 -200 154 -334 154 -336 241 -422 105
-105 249 -188 325 -188 163 1 290 48 422 155 94 76 243 285 354 495 35 66 84
147 110 180 25 33 50 70 53 83 12 37 62 56 151 56 l80 1 14 47 c13 43 17 47
50 50 32 3 36 7 48 48 18 59 24 118 27 248 3 112 -5 170 -24 182 -7 4 -8 15
-2 31 5 13 6 35 2 49 -7 29 -2 60 11 60 49 0 -6 249 -93 424 -49 97 -108 187
-119 181 -11 -7 -122 140 -124 164 -2 32 -164 172 -325 283 -74 51 -111 69
-165 83 -38 9 -90 23 -115 31 -36 11 -284 26 -293 18z m947 -640 c20 -8 99
-134 125 -201 46 -118 100 -351 86 -373 -5 -8 -10 -9 -14 -2 -3 6 -40 12 -81
14 -90 4 -106 14 -85 56 18 36 32 168 29 272 -2 73 -27 160 -59 200 -30 37
-30 45 -1 34z m-1796 -106 c-12 -24 -21 -49 -20 -55 2 -7 -5 -27 -13 -44 -10
-18 -15 -49 -14 -73 2 -22 -3 -67 -11 -99 -12 -51 -12 -62 3 -93 22 -45 21
-64 0 -65 -10 0 -37 -1 -61 -2 -26 -1 -42 2 -42 10 0 6 5 13 12 15 6 2 15 36
19 75 12 117 108 373 140 373 5 0 -1 -19 -13 -42z"/>
</g>
</svg>
